<svg width="50" height="50" viewBox="0 0 50 50" fill="none" xmlns="http://www.w3.org/2000/svg">
<g clip-path="url(#clip0_8_96)">
<path d="M45.5149 0.892578H5.09369C2.64188 0.892578 0.654297 2.88016 0.654297 5.33197V45.4532C0.654297 47.905 2.64188 49.8926 5.09369 49.8926H45.5149C47.9667 49.8926 49.9543 47.905 49.9543 45.4532V5.33197C49.9543 2.88016 47.9667 0.892578 45.5149 0.892578Z" fill="#C591C3"/>
<path d="M22.863 23.7363V28.0092C22.863 28.696 22.2908 29.2301 21.6422 29.2301H21.0318C19.6583 29.2301 18.5901 28.1618 18.5901 26.7884V24.9572C18.5901 23.6219 19.6583 22.5155 21.0318 22.5155H21.6422C22.2908 22.5155 22.863 23.0878 22.863 23.7363ZM29.5776 29.2301H28.9672C28.2805 29.2301 27.7464 28.696 27.7464 28.0092V23.7363C27.7464 23.0878 28.2805 22.5155 28.9672 22.5155H29.5776C30.9129 22.5155 32.0193 23.6219 32.0193 24.9572V26.7884C32.0193 28.1618 30.9129 29.2301 29.5776 29.2301ZM25.3047 15.8009C30.7221 15.8009 34.8806 20.3409 35.0714 25.5676V31.9007C35.0714 33.8082 33.5072 35.3342 31.5996 35.3342H24.6943C23.6642 35.3342 22.863 34.5331 22.863 33.503C22.863 32.5111 23.6642 31.6717 24.6943 31.6717H25.9151C26.907 31.6717 27.7464 32.5111 27.7464 33.503H31.5996C32.5152 33.503 33.2401 32.8163 33.2401 31.9007C33.2401 31.9007 33.202 25.682 33.202 25.5676H33.2401C33.2401 21.2184 29.6539 17.6322 25.3047 17.6322C20.9173 17.6322 17.3693 21.2184 17.3693 25.5676V26.178C17.3693 26.5214 17.0641 26.7884 16.7589 26.7884H16.1484C15.8051 26.7884 15.538 26.5214 15.538 26.178V25.5676C15.6906 20.3409 19.8491 15.8009 25.3047 15.8009Z" fill="white"/>
</g>
<defs>
<clipPath id="clip0_8_96">
<rect width="50" height="50" fill="white"/>
</clipPath>
</defs>
</svg>
