<svg width="48" height="50" viewBox="0 0 48 50" fill="none" xmlns="http://www.w3.org/2000/svg">
<rect x="0.654297" y="0.0488281" width="46.8583" height="49" rx="4.43939" fill="#4c83b7"/>
<path d="M24.0879 24.3423C24.5839 24.3423 25.0035 24.762 25.0035 25.2579C25.0417 29.073 24.3931 32.0107 23.859 33.8419C23.7445 34.2616 23.4012 34.4905 22.9815 34.4905C22.1803 34.4905 21.9896 33.7275 22.104 33.346C22.8289 30.6754 23.2104 28.043 23.1723 25.2579C23.1723 24.762 23.5538 24.3423 24.0879 24.3423ZM24.0497 21.2521C26.2243 21.2902 28.0174 23.0452 28.0556 25.1435C28.0556 27.0892 27.9411 29.073 27.5978 30.9806C27.5978 31.1332 27.3307 31.8581 26.5677 31.7055C26.0717 31.6292 25.7284 31.1714 25.8047 30.6754C26.1099 28.8823 26.2243 27.0129 26.2243 25.1816C26.1862 24.0371 25.1943 23.0833 24.0116 23.0833C22.7145 23.0833 21.9133 24.0753 21.9514 25.0672C21.9514 27.051 21.7988 28.9967 21.3792 30.9043C21.3029 31.4003 20.8069 31.7055 20.3109 31.6292C19.815 31.5147 19.5098 31.0188 19.5861 30.5228C19.9676 28.7678 20.1202 26.9366 20.1202 25.1053C20.082 23.0452 21.7225 21.2521 24.0497 21.2521ZM19.815 20.4891C20.1965 20.7943 20.2728 21.3665 19.9676 21.7862C19.2427 22.6637 18.8612 23.7319 18.8993 24.8764C18.8993 26.4025 18.7849 27.9667 18.5178 29.4927C18.4797 29.6835 18.2126 30.3702 17.4496 30.2176C16.9536 30.1413 16.6103 29.6835 16.6866 29.1493C16.9536 27.7759 17.0681 26.3262 17.0681 24.8764C17.0299 23.3504 17.5641 21.8243 18.5178 20.6035C18.8612 20.222 19.4335 20.1839 19.815 20.4891ZM24.0116 18.1237C27.8648 18.1618 31.0314 21.2902 31.1077 25.029C31.1077 25.2198 31.1077 25.3724 31.1077 25.5632C31.1077 26.9366 31.0314 28.2719 30.8788 29.6072C30.8406 29.9887 30.4973 30.4846 29.8487 30.4083C29.3527 30.3702 29.0094 29.9124 29.0475 29.4164C29.2001 27.9667 29.2764 26.5169 29.2764 25.0672C29.2383 22.2822 26.8348 19.9931 23.9734 19.9549C23.5156 19.9549 23.096 19.9931 22.6763 20.0694C22.1803 20.1839 21.6844 19.8786 21.5699 19.3827C21.4555 18.9249 21.7607 18.4289 22.2566 18.3145C22.8289 18.1618 23.4012 18.0855 24.0116 18.1237ZM33.6257 22.74C33.8546 23.8082 33.8546 24.6475 33.8164 25.4868C33.8164 26.021 33.4349 26.4025 32.9008 26.4025C32.4048 26.4025 31.9852 25.9828 31.9852 25.4868C32.0233 24.5712 31.9852 23.9608 31.8326 23.1215C31.7181 22.6255 32.0233 22.1677 32.5193 22.0533C33.0152 21.9388 33.5112 22.244 33.6257 22.74ZM32.0615 19.2682C32.3667 19.6879 32.2522 20.2602 31.8707 20.5654C31.451 20.8324 30.8788 20.7561 30.5736 20.3365C29.0475 18.1618 26.5677 16.8647 23.9353 16.8266C21.7607 16.7884 19.7768 17.5896 18.2889 19.0393C16.8773 20.4891 16.1143 22.3585 16.1525 24.3423L16.1143 25.2579C16.1143 25.7539 15.6947 26.1354 15.2368 26.1354C15.1987 26.1354 15.1987 26.1354 15.1987 26.1354C14.7027 26.1354 14.2831 25.7158 14.3212 25.2198V24.3805C14.2831 21.9007 15.2368 19.5353 16.9918 17.7422C18.823 15.9109 21.3029 14.9572 23.9353 14.9953C27.1781 15.0335 30.2302 16.6358 32.0615 19.2682Z" fill="white"/>
</svg>
