<svg width="51" height="50" viewBox="0 0 51 50" fill="none" xmlns="http://www.w3.org/2000/svg">
<rect x="0.654297" y="0.207031" width="49.4167" height="49" rx="4.43939" fill="#51bdce"/>
<path d="M27.1936 16.3362C27.8421 16.3362 28.4144 16.9085 28.4144 17.557V21.2195C28.4144 21.9063 27.8421 22.4404 27.1936 22.4404H23.5311C22.8443 22.4404 22.3102 21.9063 22.3102 21.2195V17.557C22.3102 16.9085 22.8443 16.3362 23.5311 16.3362H27.1936ZM21.0894 18.4727V21.2195C21.0894 21.601 21.1657 21.9444 21.2801 22.2496C19.983 23.1652 19.0292 24.5387 18.5714 26.1029H16.702C17.2361 23.6612 18.7622 21.5629 20.8605 20.3039H17.8465C17.465 21.2195 16.5876 21.8299 15.5956 21.8299C14.2222 21.8299 13.154 20.7617 13.154 19.3883C13.154 18.053 14.2222 16.9466 15.5956 16.9466C16.5876 16.9466 17.465 17.5952 17.8465 18.4727H21.0894ZM19.2581 27.3237C19.9067 27.3237 20.479 27.896 20.479 28.5445V32.207C20.479 32.8937 19.9067 33.4279 19.2581 33.4279H15.5956C14.9089 33.4279 14.3748 32.8937 14.3748 32.207V28.5445C14.3748 27.896 14.9089 27.3237 15.5956 27.3237H19.2581ZM35.129 16.9466C36.4643 16.9466 37.5706 18.053 37.5706 19.3883C37.5706 20.7617 36.4643 21.8299 35.129 21.8299C34.0989 21.8299 33.2214 21.2195 32.8399 20.3039H29.826C31.9243 21.5629 33.4503 23.6612 33.9844 26.1029H32.115C31.6572 24.5387 30.7035 23.1652 29.4063 22.2496C29.5208 21.9444 29.6352 21.601 29.6352 21.2195V18.4727H32.8399C33.2214 17.5952 34.0989 16.9466 35.129 16.9466ZM35.129 27.3237C35.7775 27.3237 36.3498 27.896 36.3498 28.5445V32.207C36.3498 32.8937 35.7775 33.4279 35.129 33.4279H31.4665C30.7798 33.4279 30.2456 32.8937 30.2456 32.207V28.5445C30.2456 27.896 30.7798 27.3237 31.4665 27.3237H35.129Z" fill="white"/>
</svg>
