<svg width="421" height="517" viewBox="0 0 421 517" fill="none" xmlns="http://www.w3.org/2000/svg">
<path d="M312.156 331.51L271.276 251.771L240.505 284V331.51H180.401V284L179.719 283.286H179.635V283.198L149.63 251.771L108.75 331.51H34.9635L108.896 210.802L38.1406 137.615H117.828L179.635 209.776V137.266H118.531V89.3854H300.656V137.266H239.552V137.615H240.505V210.672L303.078 137.615H382.766L312.01 210.802L385.943 331.51H312.156ZM378.844 0H42.0625C18.9271 0 0 18.9271 0 42.0625V378.839C0 401.974 18.9271 420.901 42.0625 420.901H378.844C401.974 420.901 420.906 401.974 420.906 378.839V42.0625C420.906 18.9271 401.974 0 378.844 0Z" fill="white"/>
<path d="M17.4727 515.004V452.004H63.0143V459.442H25.806V478.733H60.6602V486.129H25.806V507.567H64.4935V515.004H17.4727Z" fill="white"/>
<path d="M69.3588 515.004L93.713 482.171L72.2338 452.004H82.1505L93.588 468.171C95.9578 471.52 97.6505 474.098 98.6505 475.9C100.052 473.614 101.713 471.223 103.63 468.733L116.317 452.004H125.38L103.255 481.713L127.109 515.004H116.796L100.942 492.525C100.052 491.239 99.1349 489.832 98.1922 488.317C96.7755 490.608 95.7651 492.187 95.1713 493.046L79.3588 515.004H69.3588Z" fill="white"/>
<path d="M134.203 515.004V452.004H157.953C162.146 452.004 165.339 452.207 167.537 452.608C170.63 453.124 173.224 454.114 175.308 455.567C177.401 457.015 179.089 459.041 180.37 461.65C181.646 464.249 182.287 467.114 182.287 470.233C182.287 475.598 180.573 480.135 177.162 483.838C173.755 487.546 167.604 489.4 158.703 489.4H142.537V515.004H134.203ZM142.537 481.963H158.828C164.198 481.963 168.021 480.963 170.287 478.963C172.547 476.952 173.683 474.124 173.683 470.483C173.683 467.848 173.011 465.588 171.683 463.713C170.36 461.843 168.61 460.603 166.433 460.004C165.026 459.635 162.427 459.442 158.641 459.442H142.537V481.963Z" fill="white"/>
<path d="M192.819 515.004V452.004H238.36V459.442H201.152V478.733H236.006V486.129H201.152V507.567H239.84V515.004H192.819Z" fill="white"/>
<path d="M251.226 515.004V452.004H279.163C284.773 452.004 289.038 452.577 291.955 453.713C294.882 454.838 297.215 456.843 298.955 459.713C300.7 462.577 301.58 465.739 301.58 469.192C301.58 473.666 300.132 477.437 297.247 480.504C294.356 483.562 289.887 485.51 283.851 486.338C286.043 487.411 287.715 488.457 288.872 489.483C291.299 491.723 293.606 494.515 295.788 497.858L306.747 515.004H296.267L287.913 501.9C285.481 498.124 283.47 495.233 281.892 493.233C280.319 491.223 278.908 489.812 277.663 489.004C276.424 488.202 275.158 487.645 273.872 487.338C272.924 487.135 271.377 487.025 269.226 487.025H259.559V515.004H251.226ZM259.559 479.817H277.476C281.293 479.817 284.273 479.421 286.413 478.629C288.564 477.843 290.194 476.582 291.309 474.858C292.429 473.124 292.997 471.233 292.997 469.192C292.997 466.223 291.908 463.775 289.747 461.858C287.58 459.931 284.158 458.963 279.497 458.963H259.559V479.817Z" fill="white"/>
<path d="M328.821 515.004V459.442H308.071V452.004H358.009V459.442H337.155V515.004H328.821Z" fill="white"/>
<path d="M363.509 494.775L371.363 494.088C371.732 497.228 372.602 499.812 373.967 501.838C375.326 503.853 377.436 505.489 380.3 506.733C383.16 507.983 386.384 508.608 389.967 508.608C393.144 508.608 395.951 508.14 398.384 507.192C400.826 506.249 402.639 504.952 403.821 503.296C405.014 501.645 405.613 499.848 405.613 497.9C405.613 495.931 405.035 494.207 403.884 492.733C402.743 491.249 400.852 490.004 398.217 489.004C396.535 488.353 392.795 487.332 387.009 485.942C381.217 484.556 377.16 483.244 374.842 482.004C371.842 480.437 369.597 478.483 368.113 476.15C366.639 473.806 365.904 471.187 365.904 468.296C365.904 465.119 366.805 462.145 368.613 459.379C370.415 456.619 373.05 454.52 376.509 453.088C379.977 451.661 383.842 450.942 388.092 450.942C392.753 450.942 396.868 451.697 400.425 453.192C403.993 454.692 406.738 456.911 408.654 459.838C410.581 462.754 411.618 466.062 411.759 469.754L403.759 470.358C403.326 466.374 401.873 463.369 399.404 461.338C396.93 459.301 393.269 458.275 388.425 458.275C383.384 458.275 379.706 459.207 377.404 461.067C375.097 462.916 373.946 465.14 373.946 467.733C373.946 469.999 374.764 471.864 376.404 473.317C377.998 474.791 382.186 476.291 388.967 477.817C395.743 479.348 400.389 480.687 402.904 481.838C406.566 483.52 409.279 485.661 411.029 488.254C412.774 490.853 413.654 493.843 413.654 497.213C413.654 500.562 412.686 503.723 410.759 506.692C408.842 509.65 406.081 511.957 402.488 513.608C398.904 515.26 394.857 516.088 390.363 516.088C384.654 516.088 379.873 515.249 376.029 513.588C372.18 511.926 369.16 509.421 366.967 506.088C364.769 502.76 363.618 498.983 363.509 494.775Z" fill="white"/>
</svg>
