<svg width="1142" height="280" viewBox="0 0 1142 280" fill="none" xmlns="http://www.w3.org/2000/svg">
<path d="M433.22 32.0699L415 14.3099C410.74 9.75149 405.535 6.17831 399.75 3.83997C393.903 1.4263 387.636 0.189364 381.31 0.199951H264.53L190.47 42.5399H429.12C430.307 42.6345 431.491 42.3269 432.481 41.6666C433.472 41.0062 434.211 40.0317 434.58 38.9C435.494 36.1666 435.04 33.8899 433.22 32.0699ZM104.5 91.71L30.4302 134.06H330.32L404.32 91.7199L104.5 91.71ZM0.700234 187.32C0.242104 188.439 0.0850382 189.658 0.244698 190.856C0.404358 192.055 0.875145 193.19 1.61021 194.15L19.8202 211.91C24.2531 216.468 29.5729 220.07 35.4515 222.494C41.33 224.917 47.6427 226.11 54.0002 226H169.31L179.17 220.36V220.52L243.6 183.66H6.16023C4.97104 183.567 3.78512 183.877 2.79429 184.541C1.80346 185.205 1.06568 186.184 0.700234 187.32ZM743 11.1299L378.3 219.64C371.098 223.783 362.939 225.975 354.63 226H254.85L367.38 161.67V161.8L638.73 6.54993C645.932 2.40313 654.09 0.207451 662.4 0.179932H740.25C743.284 0.179932 745.107 1.69659 745.72 4.72992C746.63 7.17992 745.72 9.29994 743 11.1299ZM940.48 11.1299L575.79 219.64C568.586 223.789 560.424 225.988 552.11 226.02H452.34L564.86 161.69V161.82L836.21 6.56995C843.415 2.42276 851.577 0.227117 859.89 0.199951H937.74C940.76 0.199951 942.58 1.71661 943.2 4.74994C944.11 7.17994 943.2 9.29994 940.47 11.1299H940.48ZM1138.15 11.1299L959.79 113.13L903.72 145.19L773.47 219.67C766.268 223.815 758.11 226.01 749.8 226.04H650L762.53 161.71V161.84L847.66 113.13L903.66 81.0699L1033.83 6.58997C1041.03 2.44278 1049.2 0.247076 1057.51 0.21991H1135.36C1138.38 0.21991 1140.2 1.73663 1140.83 4.76996C1141.78 7.18996 1140.88 9.30994 1138.14 11.1299H1138.15ZM1140.89 221.47C1140.26 224.497 1138.43 226.013 1135.42 226.02H1057.57C1049.26 225.993 1041.1 223.797 1033.89 219.65L946.38 169.58L1002.53 137.58L1138.15 215.11C1140.88 216.917 1141.79 219.037 1140.88 221.47H1140.89Z" fill="url(#paint0_linear_0_1)"/>
<path d="M860.04 260.35H737.76" stroke="black" stroke-miterlimit="10"/>
<path d="M194.55 260.35H72.27" stroke="black" stroke-miterlimit="10"/>
<path d="M240.708 252.334C240.555 251.038 239.933 250.032 238.842 249.317C237.751 248.601 236.413 248.243 234.828 248.243C233.669 248.243 232.654 248.43 231.785 248.805C230.924 249.18 230.251 249.696 229.765 250.352C229.288 251.008 229.049 251.754 229.049 252.589C229.049 253.288 229.215 253.889 229.548 254.392C229.889 254.886 230.323 255.3 230.852 255.632C231.38 255.956 231.934 256.224 232.514 256.437C233.093 256.642 233.626 256.808 234.112 256.936L236.771 257.652C237.453 257.831 238.211 258.078 239.046 258.393C239.89 258.709 240.696 259.139 241.463 259.684C242.238 260.221 242.877 260.912 243.38 261.755C243.883 262.599 244.135 263.635 244.135 264.862C244.135 266.277 243.764 267.555 243.022 268.697C242.289 269.839 241.215 270.747 239.801 271.42C238.394 272.094 236.686 272.43 234.674 272.43C232.799 272.43 231.176 272.128 229.804 271.523C228.44 270.917 227.366 270.074 226.582 268.991C225.806 267.909 225.367 266.652 225.265 265.22H228.538C228.623 266.209 228.956 267.027 229.535 267.675C230.123 268.314 230.865 268.791 231.759 269.106C232.663 269.413 233.634 269.567 234.674 269.567C235.884 269.567 236.971 269.371 237.934 268.978C238.897 268.578 239.66 268.024 240.223 267.317C240.785 266.601 241.066 265.765 241.066 264.811C241.066 263.942 240.823 263.234 240.338 262.689C239.852 262.143 239.213 261.7 238.42 261.359C237.627 261.018 236.771 260.72 235.85 260.464L232.629 259.544C230.583 258.956 228.964 258.116 227.771 257.025C226.578 255.934 225.981 254.507 225.981 252.743C225.981 251.277 226.377 249.998 227.17 248.907C227.971 247.808 229.045 246.956 230.392 246.351C231.747 245.737 233.259 245.43 234.93 245.43C236.617 245.43 238.117 245.733 239.43 246.338C240.742 246.934 241.782 247.753 242.549 248.792C243.325 249.832 243.734 251.013 243.777 252.334H240.708ZM256.915 272.379C255.143 272.379 253.587 271.957 252.249 271.113C250.92 270.27 249.88 269.089 249.13 267.572C248.388 266.055 248.018 264.282 248.018 262.254C248.018 260.209 248.388 258.423 249.13 256.898C249.88 255.372 250.92 254.187 252.249 253.344C253.587 252.5 255.143 252.078 256.915 252.078C258.688 252.078 260.239 252.5 261.569 253.344C262.907 254.187 263.947 255.372 264.688 256.898C265.438 258.423 265.813 260.209 265.813 262.254C265.813 264.282 265.438 266.055 264.688 267.572C263.947 269.089 262.907 270.27 261.569 271.113C260.239 271.957 258.688 272.379 256.915 272.379ZM256.915 269.669C258.262 269.669 259.37 269.324 260.239 268.633C261.109 267.943 261.752 267.035 262.17 265.91C262.587 264.785 262.796 263.567 262.796 262.254C262.796 260.942 262.587 259.719 262.17 258.585C261.752 257.452 261.109 256.535 260.239 255.836C259.37 255.138 258.262 254.788 256.915 254.788C255.569 254.788 254.461 255.138 253.592 255.836C252.722 256.535 252.079 257.452 251.661 258.585C251.244 259.719 251.035 260.942 251.035 262.254C251.035 263.567 251.244 264.785 251.661 265.91C252.079 267.035 252.722 267.943 253.592 268.633C254.461 269.324 255.569 269.669 256.915 269.669ZM279.163 252.334V254.89H268.578V252.334H279.163ZM271.748 271.97V249.623C271.748 248.498 272.012 247.561 272.541 246.811C273.069 246.061 273.755 245.498 274.599 245.123C275.443 244.748 276.333 244.561 277.271 244.561C278.012 244.561 278.617 244.621 279.086 244.74C279.555 244.859 279.904 244.97 280.134 245.072L279.265 247.68C279.112 247.629 278.899 247.565 278.626 247.488C278.362 247.412 278.012 247.373 277.578 247.373C276.581 247.373 275.86 247.625 275.417 248.128C274.983 248.63 274.765 249.368 274.765 250.339V271.97H271.748ZM291.931 252.334V254.89H281.755V252.334H291.931ZM284.721 247.629H287.738V266.345C287.738 267.197 287.861 267.836 288.109 268.263C288.364 268.68 288.688 268.961 289.08 269.106C289.481 269.243 289.903 269.311 290.346 269.311C290.678 269.311 290.951 269.294 291.164 269.26C291.377 269.217 291.547 269.183 291.675 269.157L292.289 271.868C292.084 271.944 291.799 272.021 291.432 272.098C291.066 272.183 290.601 272.226 290.039 272.226C289.187 272.226 288.351 272.042 287.533 271.676C286.724 271.309 286.05 270.751 285.513 270.001C284.985 269.251 284.721 268.305 284.721 267.163V247.629ZM301.283 271.97L294.123 245.788H297.345L302.817 267.112H303.072L308.646 245.788H312.226L317.8 267.112H318.055L323.527 245.788H326.748L319.589 271.97H316.317L310.538 251.106H310.334L304.555 271.97H301.283ZM330.29 271.97V252.334H333.307V271.97H330.29ZM331.824 249.061C331.236 249.061 330.729 248.861 330.302 248.46C329.885 248.059 329.676 247.578 329.676 247.015C329.676 246.453 329.885 245.971 330.302 245.571C330.729 245.17 331.236 244.97 331.824 244.97C332.412 244.97 332.915 245.17 333.332 245.571C333.758 245.971 333.972 246.453 333.972 247.015C333.972 247.578 333.758 248.059 333.332 248.46C332.915 248.861 332.412 249.061 331.824 249.061ZM338.27 271.97V269.669L349.418 255.351V255.146H338.628V252.334H353.304V254.737L342.463 268.953V269.157H353.662V271.97H338.27ZM368.843 271.97V245.788H372.014V258.777H372.321L384.082 245.788H388.224L377.23 257.601L388.224 271.97H384.389L375.286 259.8L372.014 263.481V271.97H368.843ZM397.697 272.43C396.453 272.43 395.323 272.196 394.309 271.727C393.295 271.25 392.49 270.564 391.893 269.669C391.296 268.765 390.998 267.675 390.998 266.396C390.998 265.271 391.22 264.359 391.663 263.66C392.106 262.953 392.698 262.399 393.44 261.998C394.181 261.598 395 261.3 395.894 261.103C396.798 260.899 397.706 260.737 398.617 260.618C399.811 260.464 400.778 260.349 401.519 260.273C402.269 260.187 402.815 260.047 403.156 259.851C403.505 259.655 403.68 259.314 403.68 258.828V258.726C403.68 257.464 403.335 256.484 402.644 255.785C401.963 255.086 400.927 254.737 399.538 254.737C398.098 254.737 396.968 255.052 396.15 255.683C395.332 256.314 394.757 256.987 394.424 257.703L391.561 256.68C392.072 255.487 392.754 254.558 393.606 253.893C394.467 253.22 395.404 252.751 396.419 252.487C397.441 252.214 398.447 252.078 399.436 252.078C400.066 252.078 400.791 252.155 401.609 252.308C402.436 252.453 403.233 252.755 404 253.216C404.775 253.676 405.419 254.371 405.93 255.3C406.441 256.228 406.697 257.473 406.697 259.032V271.97H403.68V269.311H403.527C403.322 269.737 402.981 270.193 402.504 270.679C402.027 271.165 401.392 271.578 400.599 271.919C399.806 272.26 398.839 272.43 397.697 272.43ZM398.157 269.72C399.35 269.72 400.356 269.486 401.174 269.017C402.001 268.548 402.623 267.943 403.041 267.202C403.467 266.46 403.68 265.68 403.68 264.862V262.101C403.552 262.254 403.271 262.395 402.836 262.523C402.41 262.642 401.916 262.748 401.353 262.842C400.799 262.927 400.258 263.004 399.73 263.072C399.21 263.132 398.788 263.183 398.464 263.226C397.68 263.328 396.947 263.494 396.265 263.724C395.592 263.946 395.046 264.282 394.629 264.734C394.22 265.177 394.015 265.782 394.015 266.55C394.015 267.598 394.403 268.39 395.179 268.927C395.963 269.456 396.956 269.72 398.157 269.72ZM420.948 252.334V254.89H410.363V252.334H420.948ZM413.533 271.97V249.623C413.533 248.498 413.797 247.561 414.326 246.811C414.854 246.061 415.54 245.498 416.384 245.123C417.228 244.748 418.119 244.561 419.056 244.561C419.797 244.561 420.403 244.621 420.871 244.74C421.34 244.859 421.69 244.97 421.92 245.072L421.05 247.68C420.897 247.629 420.684 247.565 420.411 247.488C420.147 247.412 419.797 247.373 419.363 247.373C418.366 247.373 417.646 247.625 417.202 248.128C416.768 248.63 416.55 249.368 416.55 250.339V271.97H413.533ZM432.601 272.379C430.709 272.379 429.077 271.961 427.704 271.126C426.341 270.282 425.288 269.106 424.547 267.598C423.814 266.081 423.447 264.317 423.447 262.305C423.447 260.294 423.814 258.521 424.547 256.987C425.288 255.444 426.32 254.243 427.641 253.382C428.97 252.513 430.521 252.078 432.294 252.078C433.317 252.078 434.327 252.248 435.324 252.589C436.321 252.93 437.229 253.484 438.047 254.251C438.865 255.01 439.517 256.015 440.003 257.268C440.489 258.521 440.731 260.064 440.731 261.896V263.175H425.595V260.567H437.663C437.663 259.459 437.442 258.47 436.998 257.601C436.564 256.731 435.942 256.045 435.132 255.542C434.331 255.04 433.385 254.788 432.294 254.788C431.092 254.788 430.052 255.086 429.175 255.683C428.305 256.271 427.636 257.038 427.168 257.984C426.699 258.93 426.464 259.944 426.464 261.027V262.765C426.464 264.248 426.72 265.505 427.231 266.537C427.751 267.559 428.472 268.339 429.392 268.876C430.312 269.405 431.382 269.669 432.601 269.669C433.393 269.669 434.109 269.558 434.748 269.336C435.396 269.106 435.954 268.765 436.423 268.314C436.892 267.853 437.254 267.282 437.51 266.601L440.425 267.419C440.118 268.407 439.602 269.277 438.878 270.027C438.153 270.768 437.258 271.348 436.193 271.765C435.128 272.175 433.93 272.379 432.601 272.379ZM454.423 248.601V245.788H474.06V248.601H465.827V271.97H462.656V248.601H454.423ZM483.929 272.379C482.037 272.379 480.405 271.961 479.033 271.126C477.669 270.282 476.616 269.106 475.875 267.598C475.142 266.081 474.775 264.317 474.775 262.305C474.775 260.294 475.142 258.521 475.875 256.987C476.616 255.444 477.648 254.243 478.969 253.382C480.298 252.513 481.849 252.078 483.622 252.078C484.645 252.078 485.655 252.248 486.652 252.589C487.649 252.93 488.557 253.484 489.375 254.251C490.193 255.01 490.845 256.015 491.331 257.268C491.817 258.521 492.06 260.064 492.06 261.896V263.175H476.923V260.567H488.991C488.991 259.459 488.77 258.47 488.327 257.601C487.892 256.731 487.27 256.045 486.46 255.542C485.659 255.04 484.713 254.788 483.622 254.788C482.42 254.788 481.381 255.086 480.503 255.683C479.633 256.271 478.964 257.038 478.496 257.984C478.027 258.93 477.793 259.944 477.793 261.027V262.765C477.793 264.248 478.048 265.505 478.56 266.537C479.079 267.559 479.8 268.339 480.72 268.876C481.641 269.405 482.71 269.669 483.929 269.669C484.722 269.669 485.437 269.558 486.077 269.336C486.724 269.106 487.283 268.765 487.751 268.314C488.22 267.853 488.582 267.282 488.838 266.601L491.753 267.419C491.446 268.407 490.93 269.277 490.206 270.027C489.481 270.768 488.587 271.348 487.521 271.765C486.456 272.175 485.258 272.379 483.929 272.379ZM504.626 272.379C502.785 272.379 501.2 271.944 499.871 271.075C498.541 270.206 497.518 269.008 496.802 267.483C496.087 265.957 495.729 264.214 495.729 262.254C495.729 260.26 496.095 258.5 496.828 256.974C497.57 255.44 498.601 254.243 499.922 253.382C501.251 252.513 502.802 252.078 504.575 252.078C505.956 252.078 507.2 252.334 508.308 252.845C509.416 253.356 510.324 254.072 511.031 254.993C511.739 255.913 512.177 256.987 512.348 258.214H509.331C509.101 257.319 508.589 256.527 507.797 255.836C507.013 255.138 505.956 254.788 504.626 254.788C503.45 254.788 502.419 255.095 501.533 255.709C500.655 256.314 499.969 257.17 499.474 258.278C498.989 259.378 498.746 260.669 498.746 262.152C498.746 263.669 498.984 264.99 499.462 266.115C499.947 267.24 500.629 268.113 501.507 268.736C502.393 269.358 503.433 269.669 504.626 269.669C505.41 269.669 506.122 269.532 506.761 269.26C507.4 268.987 507.942 268.595 508.385 268.084C508.828 267.572 509.143 266.959 509.331 266.243H512.348C512.177 267.402 511.756 268.446 511.082 269.375C510.418 270.295 509.535 271.028 508.436 271.574C507.345 272.111 506.075 272.379 504.626 272.379ZM519.775 260.157V271.97H516.758V245.788H519.775V255.402H520.031C520.491 254.388 521.182 253.582 522.102 252.986C523.031 252.38 524.267 252.078 525.81 252.078C527.148 252.078 528.32 252.346 529.325 252.883C530.331 253.412 531.111 254.226 531.665 255.325C532.227 256.416 532.508 257.805 532.508 259.493V271.97H529.491V259.697C529.491 258.138 529.087 256.932 528.277 256.079C527.476 255.219 526.364 254.788 524.94 254.788C523.952 254.788 523.065 254.997 522.281 255.415C521.506 255.832 520.892 256.442 520.44 257.243C519.997 258.044 519.775 259.015 519.775 260.157ZM541.045 260.157V271.97H538.028V252.334H540.943V255.402H541.198C541.659 254.405 542.358 253.603 543.295 252.998C544.233 252.385 545.443 252.078 546.926 252.078C548.255 252.078 549.419 252.351 550.416 252.896C551.413 253.433 552.188 254.251 552.742 255.351C553.296 256.442 553.573 257.822 553.573 259.493V271.97H550.556V259.697C550.556 258.155 550.156 256.953 549.355 256.092C548.554 255.223 547.454 254.788 546.056 254.788C545.093 254.788 544.233 254.997 543.474 255.415C542.724 255.832 542.132 256.442 541.697 257.243C541.262 258.044 541.045 259.015 541.045 260.157ZM567.064 272.379C565.291 272.379 563.736 271.957 562.398 271.113C561.068 270.27 560.028 269.089 559.278 267.572C558.537 266.055 558.166 264.282 558.166 262.254C558.166 260.209 558.537 258.423 559.278 256.898C560.028 255.372 561.068 254.187 562.398 253.344C563.736 252.5 565.291 252.078 567.064 252.078C568.837 252.078 570.388 252.5 571.717 253.344C573.055 254.187 574.095 255.372 574.837 256.898C575.587 258.423 575.962 260.209 575.962 262.254C575.962 264.282 575.587 266.055 574.837 267.572C574.095 269.089 573.055 270.27 571.717 271.113C570.388 271.957 568.837 272.379 567.064 272.379ZM567.064 269.669C568.41 269.669 569.518 269.324 570.388 268.633C571.257 267.943 571.9 267.035 572.318 265.91C572.736 264.785 572.945 263.567 572.945 262.254C572.945 260.942 572.736 259.719 572.318 258.585C571.9 257.452 571.257 256.535 570.388 255.836C569.518 255.138 568.41 254.788 567.064 254.788C565.717 254.788 564.609 255.138 563.74 255.836C562.871 256.535 562.227 257.452 561.81 258.585C561.392 259.719 561.183 260.942 561.183 262.254C561.183 263.567 561.392 264.785 561.81 265.91C562.227 267.035 562.871 267.943 563.74 268.633C564.609 269.324 565.717 269.669 567.064 269.669ZM583.584 245.788V271.97H580.567V245.788H583.584ZM597.087 272.379C595.315 272.379 593.759 271.957 592.421 271.113C591.092 270.27 590.052 269.089 589.302 267.572C588.56 266.055 588.19 264.282 588.19 262.254C588.19 260.209 588.56 258.423 589.302 256.898C590.052 255.372 591.092 254.187 592.421 253.344C593.759 252.5 595.315 252.078 597.087 252.078C598.86 252.078 600.411 252.5 601.741 253.344C603.079 254.187 604.119 255.372 604.86 256.898C605.61 258.423 605.985 260.209 605.985 262.254C605.985 264.282 605.61 266.055 604.86 267.572C604.119 269.089 603.079 270.27 601.741 271.113C600.411 271.957 598.86 272.379 597.087 272.379ZM597.087 269.669C598.434 269.669 599.542 269.324 600.411 268.633C601.28 267.943 601.924 267.035 602.342 265.91C602.759 264.785 602.968 263.567 602.968 262.254C602.968 260.942 602.759 259.719 602.342 258.585C601.924 257.452 601.28 256.535 600.411 255.836C599.542 255.138 598.434 254.788 597.087 254.788C595.741 254.788 594.633 255.138 593.763 255.836C592.894 256.535 592.251 257.452 591.833 258.585C591.415 259.719 591.207 260.942 591.207 262.254C591.207 263.567 591.415 264.785 591.833 265.91C592.251 267.035 592.894 267.943 593.763 268.633C594.633 269.324 595.741 269.669 597.087 269.669ZM618.517 279.743C617.059 279.743 615.806 279.555 614.758 279.18C613.71 278.814 612.836 278.328 612.137 277.723C611.447 277.126 610.897 276.487 610.488 275.805L612.892 274.118C613.164 274.476 613.509 274.885 613.927 275.345C614.345 275.814 614.916 276.219 615.64 276.559C616.373 276.909 617.332 277.084 618.517 277.084C620.102 277.084 621.41 276.7 622.441 275.933C623.473 275.166 623.988 273.964 623.988 272.328V268.339H623.733C623.511 268.697 623.196 269.14 622.786 269.669C622.386 270.189 621.806 270.653 621.048 271.062C620.298 271.463 619.284 271.663 618.005 271.663C616.42 271.663 614.997 271.288 613.735 270.538C612.483 269.788 611.49 268.697 610.757 267.265C610.032 265.834 609.67 264.095 609.67 262.05C609.67 260.038 610.024 258.287 610.731 256.795C611.438 255.295 612.423 254.136 613.684 253.318C614.946 252.491 616.403 252.078 618.056 252.078C619.335 252.078 620.349 252.291 621.099 252.717C621.858 253.135 622.437 253.612 622.838 254.149C623.247 254.677 623.562 255.112 623.784 255.453H624.09V252.334H627.005V272.532C627.005 274.22 626.622 275.592 625.855 276.649C625.096 277.714 624.073 278.494 622.786 278.988C621.508 279.491 620.085 279.743 618.517 279.743ZM618.414 268.953C619.625 268.953 620.647 268.676 621.483 268.122C622.318 267.568 622.953 266.771 623.387 265.731C623.822 264.692 624.039 263.447 624.039 261.998C624.039 260.584 623.826 259.335 623.4 258.253C622.974 257.17 622.343 256.322 621.508 255.709C620.673 255.095 619.642 254.788 618.414 254.788C617.136 254.788 616.071 255.112 615.218 255.76C614.375 256.407 613.74 257.277 613.313 258.368C612.896 259.459 612.687 260.669 612.687 261.998C612.687 263.362 612.9 264.568 613.326 265.616C613.761 266.656 614.4 267.474 615.244 268.071C616.096 268.659 617.153 268.953 618.414 268.953ZM632.528 271.97V252.334H635.545V271.97H632.528ZM634.062 249.061C633.474 249.061 632.967 248.861 632.541 248.46C632.123 248.059 631.914 247.578 631.914 247.015C631.914 246.453 632.123 245.971 632.541 245.571C632.967 245.17 633.474 244.97 634.062 244.97C634.65 244.97 635.153 245.17 635.571 245.571C635.997 245.971 636.21 246.453 636.21 247.015C636.21 247.578 635.997 248.059 635.571 248.46C635.153 248.861 634.65 249.061 634.062 249.061ZM649.304 272.379C647.412 272.379 645.78 271.961 644.408 271.126C643.044 270.282 641.991 269.106 641.25 267.598C640.517 266.081 640.15 264.317 640.15 262.305C640.15 260.294 640.517 258.521 641.25 256.987C641.991 255.444 643.023 254.243 644.344 253.382C645.673 252.513 647.224 252.078 648.997 252.078C650.02 252.078 651.03 252.248 652.027 252.589C653.024 252.93 653.932 253.484 654.75 254.251C655.568 255.01 656.22 256.015 656.706 257.268C657.192 258.521 657.435 260.064 657.435 261.896V263.175H642.298V260.567H654.366C654.366 259.459 654.145 258.47 653.702 257.601C653.267 256.731 652.645 256.045 651.835 255.542C651.034 255.04 650.088 254.788 648.997 254.788C647.795 254.788 646.756 255.086 645.878 255.683C645.008 256.271 644.339 257.038 643.871 257.984C643.402 258.93 643.168 259.944 643.168 261.027V262.765C643.168 264.248 643.423 265.505 643.935 266.537C644.454 267.559 645.175 268.339 646.095 268.876C647.016 269.405 648.085 269.669 649.304 269.669C650.097 269.669 650.812 269.558 651.452 269.336C652.099 269.106 652.658 268.765 653.126 268.314C653.595 267.853 653.957 267.282 654.213 266.601L657.128 267.419C656.821 268.407 656.305 269.277 655.581 270.027C654.856 270.768 653.962 271.348 652.896 271.765C651.831 272.175 650.633 272.379 649.304 272.379ZM675.933 256.731L673.223 257.498C673.052 257.047 672.801 256.608 672.469 256.182C672.145 255.747 671.702 255.389 671.139 255.108C670.577 254.827 669.856 254.686 668.979 254.686C667.777 254.686 666.775 254.963 665.974 255.517C665.182 256.062 664.785 256.757 664.785 257.601C664.785 258.351 665.058 258.943 665.604 259.378C666.149 259.812 667.001 260.175 668.16 260.464L671.075 261.18C672.831 261.606 674.139 262.258 675 263.136C675.861 264.005 676.291 265.126 676.291 266.498C676.291 267.623 675.967 268.629 675.32 269.515C674.68 270.402 673.785 271.101 672.635 271.612C671.484 272.123 670.146 272.379 668.621 272.379C666.618 272.379 664.96 271.944 663.648 271.075C662.335 270.206 661.504 268.936 661.155 267.265L664.018 266.55C664.291 267.606 664.807 268.399 665.565 268.927C666.332 269.456 667.334 269.72 668.57 269.72C669.976 269.72 671.092 269.422 671.919 268.825C672.754 268.22 673.172 267.496 673.172 266.652C673.172 265.97 672.933 265.399 672.456 264.939C671.979 264.47 671.246 264.121 670.257 263.89L666.984 263.123C665.186 262.697 663.865 262.037 663.021 261.142C662.186 260.238 661.768 259.109 661.768 257.754C661.768 256.646 662.079 255.666 662.702 254.814C663.332 253.961 664.189 253.292 665.271 252.807C666.362 252.321 667.598 252.078 668.979 252.078C670.922 252.078 672.447 252.504 673.555 253.356C674.672 254.209 675.464 255.334 675.933 256.731Z" fill="black"/>
<defs>
<linearGradient id="paint0_linear_0_1" x1="0.190224" y1="113.11" x2="1141.22" y2="113.11" gradientUnits="userSpaceOnUse">
<stop stop-color="#AB3895"/>
<stop offset="0.5" stop-color="#4876BB"/>
<stop offset="1" stop-color="#56C5CC"/>
</linearGradient>
</defs>
</svg>
