<svg width="1440" height="1401" viewBox="0 0 1440 1401" fill-opacity="0.6" fill="none" xmlns="http://www.w3.org/2000/svg">
<mask id="mask0_76_1710" style="mask-type:alpha" maskUnits="userSpaceOnUse" x="-228" y="23" width="2054" height="1355">
<g clip-path="url(#clip0_76_1710)">
<mask id="mask1_76_1710" style="mask-type:luminance" maskUnits="userSpaceOnUse" x="-203" y="331" width="1899" height="558">
<path d="M1695.9 332.268C1670.85 342.262 1643.67 354.753 1614.16 370.105C1502.69 428.091 1419.15 485.164 1349.47 532.776C1183.21 646.372 1095.7 706.156 895.612 596.366C778.479 532.096 671.701 534.331 579.883 570.17C449.537 621.051 349.313 739.652 292.419 831.906C237.524 920.916 154.808 886.923 59.625 847.802C-13.892 817.586 -94.8737 784.305 -176.082 802.503C-185.188 804.543 -193.834 806.934 -202.07 809.616L-202.432 808.716C-194.155 806.02 -185.464 803.615 -176.307 801.564C-94.8087 783.3 -13.6889 816.642 59.9575 846.908C154.754 885.871 237.133 919.726 291.62 831.377C348.591 739 448.962 620.24 579.528 569.272C671.58 533.338 778.627 531.096 896.039 595.518C1095.63 705.031 1182.97 645.357 1348.93 531.967C1418.63 484.348 1502.18 427.263 1613.72 369.243C1643.25 353.884 1670.46 341.374 1695.54 331.364L1695.9 332.268Z" fill="white"/>
</mask>
<g mask="url(#mask1_76_1710)">
<path d="M1741.72 446.07L1596.18 84.5898L-202.432 808.716L-56.8997 1170.2L1741.72 446.07Z" fill="url(#paint0_linear_76_1710)"/>
</g>
<mask id="mask2_76_1710" style="mask-type:luminance" maskUnits="userSpaceOnUse" x="-201" y="334" width="1899" height="545">
<path d="M1697.24 335.595C1671.9 346.653 1644.5 360.349 1614.83 377.14C1516.22 432.936 1439.16 486.116 1373.91 531.147C1194.3 655.104 1104.12 717.339 899.635 602.931C783.577 537.997 678.324 536.91 587.28 569.121C460.062 614.129 360.543 724.141 298.011 815.854C234.76 908.62 149.082 879.077 50.9951 845.253C-17.7604 821.544 -92.6317 795.725 -170.062 808.615C-180.572 810.365 -190.481 812.561 -199.858 815.116L-200.223 814.209C-190.789 811.635 -180.816 809.423 -170.237 807.661C-92.5765 794.731 -17.5885 820.592 51.2742 844.337C149.008 878.038 234.376 907.476 297.237 815.282C359.85 723.451 459.51 613.294 586.952 568.207C678.23 535.915 783.74 537 900.068 602.086C1104.05 716.211 1194.07 654.083 1373.37 530.341C1438.62 485.312 1515.67 432.132 1614.36 376.295C1644.07 359.486 1671.5 345.771 1696.88 334.694L1697.24 335.597L1697.24 335.595Z" fill="white"/>
</mask>
<g mask="url(#mask2_76_1710)">
<path d="M1746.76 458.607L1598.39 90.0801L-200.222 814.206L-51.8527 1182.73L1746.76 458.607Z" fill="url(#paint1_linear_76_1710)"/>
</g>
<mask id="mask3_76_1710" style="mask-type:luminance" maskUnits="userSpaceOnUse" x="-199" y="337" width="1898" height="533">
<path d="M1698.53 338.791C1672.89 350.948 1645.3 365.896 1615.49 384.172C1530.86 436.077 1461.86 484.527 1402.34 526.317C1206.7 663.694 1113.41 729.202 903.658 609.49C767.173 531.595 646.573 539.793 545.407 587.139C444.198 634.505 362.411 721.048 303.605 799.789C230.898 897.146 142.065 872.236 40.1951 843.666C-23.1017 825.916 -91.446 806.748 -164.039 814.719C-176.026 816.035 -187.251 817.906 -197.805 820.215L-198.172 819.302C-187.547 816.968 -176.244 815.084 -164.166 813.758C-91.3993 805.767 -22.9613 824.96 40.4187 842.733C141.969 871.213 230.519 896.044 302.854 799.188C361.731 720.351 443.629 633.698 545 586.255C646.413 538.796 767.298 530.574 904.099 608.646C1113.34 728.064 1206.48 662.665 1401.8 525.513C1461.32 483.716 1530.33 435.26 1615 383.337C1644.85 365.033 1672.49 350.059 1698.16 337.884L1698.53 338.788L1698.53 338.791Z" fill="white"/>
</mask>
<g mask="url(#mask3_76_1710)">
<path d="M1752.17 472.035L1600.45 95.1738L-198.17 819.3L-46.4455 1196.16L1752.17 472.035Z" fill="url(#paint2_linear_76_1710)"/>
</g>
<mask id="mask4_76_1710" style="mask-type:luminance" maskUnits="userSpaceOnUse" x="-197" y="340" width="1897" height="523">
<path d="M1699.76 341.861C1673.85 355.148 1646.06 371.396 1616.16 391.208C1546.9 437.103 1487.91 479.597 1435.84 517.1C1220.7 672.065 1123.76 741.891 907.68 616.051C773.787 538.074 656.155 540.591 556.019 582.291C455.849 624.004 373.159 704.931 309.198 783.724C225.383 886.979 133.074 866.694 25.8199 843.124C-30.9505 830.649 -91.9197 817.249 -158.018 820.821C-171.564 821.555 -184.157 822.959 -195.919 824.89L-196.291 823.967C-184.44 822.013 -171.748 820.595 -158.091 819.854C-91.8805 816.278 -30.8418 829.69 25.9939 842.182C132.955 865.687 225.008 885.915 308.472 783.094C372.509 704.206 455.31 623.178 555.653 581.393C656.032 539.593 773.937 537.063 908.13 615.212C1123.69 740.748 1220.48 671.029 1435.29 516.3C1487.35 478.803 1546.33 436.314 1615.64 390.386C1645.59 370.542 1673.43 354.261 1699.4 340.951L1699.76 341.857L1699.76 341.861Z" fill="white"/>
</mask>
<g mask="url(#mask4_76_1710)">
<path d="M1758.01 486.542L1602.33 99.8418L-196.29 823.968L-40.6042 1210.67L1758.01 486.542Z" fill="url(#paint3_linear_76_1710)"/>
</g>
<mask id="mask5_76_1710" style="mask-type:luminance" maskUnits="userSpaceOnUse" x="-195" y="343" width="1896" height="515">
<path d="M1700.95 344.806C1674.75 359.252 1646.78 376.852 1616.83 398.24C1564.6 435.535 1518.09 470.225 1475.87 501.706C1236.67 680.084 1135.4 755.599 911.704 622.613C780.404 544.556 665.74 541.393 566.636 577.445C467.503 613.509 383.907 688.819 314.795 767.662C217.212 878.985 120.958 862.957 5.2593 843.693C-43.2322 835.619 -95.1456 826.974 -151.994 826.925C-167.188 826.911 -181.208 827.702 -194.219 829.119L-194.595 828.185C-181.483 826.749 -167.347 825.946 -152.02 825.959C-95.0994 826.01 -43.1438 834.661 5.3848 842.741C120.81 861.96 216.837 877.949 314.086 767.004C383.283 688.064 466.992 612.66 566.3 576.535C665.642 540.394 780.573 543.556 912.156 621.78C1135.32 754.448 1236.44 679.039 1475.3 500.915C1517.51 469.439 1564.02 434.758 1616.28 397.439C1646.29 376.005 1674.32 358.369 1700.58 343.893L1700.94 344.801L1700.95 344.806Z" fill="white"/>
</mask>
<g mask="url(#mask5_76_1710)">
<path d="M1764.38 502.37L1604.02 104.061L-194.592 828.187L-34.2322 1226.5L1764.38 502.37Z" fill="url(#paint4_linear_76_1710)"/>
</g>
<mask id="mask6_76_1710" style="mask-type:luminance" maskUnits="userSpaceOnUse" x="-194" y="346" width="1897" height="510">
<path d="M1702.08 347.627C1675.61 363.267 1647.47 382.261 1617.5 405.274C1584.29 430.776 1553.45 454.823 1524.51 477.4C1255.11 687.532 1148.64 770.577 915.727 629.177C787.017 551.039 675.32 542.194 577.252 572.6C479.151 603.017 394.655 672.705 320.39 751.599C204.414 874.807 103.767 861.907 -26.8683 845.162C-63.8271 840.425 -103.189 835.38 -145.971 833.029C-162.907 832.097 -178.413 832.119 -192.707 832.869L-193.089 831.92C-178.679 831.15 -163.038 831.126 -145.943 832.065C-103.125 834.418 -63.7485 839.466 -26.7753 844.204C103.599 860.915 204.048 873.79 319.707 750.919C394.065 671.925 478.683 602.144 576.958 571.673C675.265 541.192 787.215 550.048 916.193 628.35C1148.56 769.414 1254.88 686.479 1523.93 476.624C1552.96 453.98 1583.89 429.859 1616.92 404.492C1646.97 381.424 1675.18 362.388 1701.72 346.713L1702.09 347.625L1702.08 347.627Z" fill="white"/>
</mask>
<g mask="url(#mask6_76_1710)">
<path d="M1771.42 519.844L1605.53 107.793L-193.089 831.919L-27.1967 1243.97L1771.42 519.844Z" fill="url(#paint5_linear_76_1710)"/>
</g>
<mask id="mask7_76_1710" style="mask-type:luminance" maskUnits="userSpaceOnUse" x="-192" y="349" width="1896" height="509">
<path d="M1703.17 350.326C1676.42 367.19 1648.12 387.624 1618.16 412.306C1606.78 421.684 1595.65 430.869 1584.77 439.85C1276.71 694.071 1163.9 787.163 919.751 635.739C793.629 557.516 684.899 542.991 587.864 567.752C490.803 592.518 405.405 656.59 325.985 735.536C183.07 877.604 78.7223 865.102 -82.7678 845.75C-101.053 843.559 -120.07 841.279 -139.946 839.129C-158.726 837.098 -175.784 836.178 -191.404 836.106L-191.793 835.139C-176.043 835.2 -158.835 836.12 -139.871 838.172C-119.978 840.325 -100.964 842.603 -82.6835 844.794C78.5406 864.113 182.718 876.596 325.324 734.836C404.842 655.792 490.366 591.635 587.614 566.821C684.886 542 793.855 556.547 920.223 634.921C1163.81 785.995 1276.48 693.015 1584.17 439.093C1595.05 430.112 1606.18 420.927 1617.57 411.549C1647.6 386.802 1675.98 366.317 1702.81 349.414L1703.17 350.326L1703.17 350.326Z" fill="white"/>
</mask>
<g mask="url(#mask7_76_1710)">
<path d="M1779.3 539.406L1606.82 111.012L-191.793 835.138L-19.3212 1263.53L1779.3 539.406Z" fill="url(#paint6_linear_76_1710)"/>
</g>
<mask id="mask8_76_1710" style="mask-type:luminance" maskUnits="userSpaceOnUse" x="-191" y="351" width="1896" height="511">
<path d="M1704.21 352.909C1677.18 371.025 1648.74 392.948 1618.83 419.339C1455.71 563.276 1343.88 658.218 1241.87 697.596C1139.77 737.005 1047.56 720.77 923.773 642.304C800.241 564 694.478 543.793 598.473 562.907C502.448 582.024 416.149 640.474 331.582 719.471C246.892 798.578 179.775 837.929 109.185 853.55C38.5982 869.17 -35.4139 861.054 -133.922 845.232C-154.661 841.903 -173.333 839.863 -190.323 838.793L-190.723 837.8C-173.591 838.864 -154.747 840.916 -133.801 844.28C-35.3952 860.085 38.5304 868.194 108.963 852.608C179.39 837.024 246.379 797.737 330.941 718.749C415.621 639.648 502.055 581.116 598.271 561.961C694.506 542.801 800.495 563.038 924.254 641.485C1047.76 719.772 1139.72 735.981 1241.51 696.691C1343.39 657.37 1455.17 562.472 1618.21 418.599C1648.21 392.13 1676.74 370.149 1703.84 351.988L1704.21 352.908L1704.21 352.909Z" fill="white"/>
</mask>
<g mask="url(#mask8_76_1710)">
<path d="M1759.72 490.799L1607.89 113.672L-190.724 837.798L-38.8922 1214.92L1759.72 490.799Z" fill="url(#paint7_linear_76_1710)"/>
</g>
<mask id="mask9_76_1710" style="mask-type:luminance" maskUnits="userSpaceOnUse" x="-190" y="354" width="1896" height="515">
<path d="M1705.2 355.371C1677.9 374.768 1649.32 398.224 1619.49 426.369C1460.02 576.852 1347.72 671.721 1244.99 709.362C1142.17 747.033 1048.98 727.404 927.795 648.86C806.856 570.475 704.057 544.588 609.079 558.055C514.091 571.523 426.894 624.357 337.175 703.4C247.347 782.538 180.737 830.05 111.749 852.519C42.7409 874.991 -28.6085 872.398 -127.899 851.327C-150.715 846.484 -171.077 843.128 -189.483 840.877L-189.894 839.857C-171.333 842.112 -150.783 845.491 -127.731 850.384C-28.604 871.423 42.6089 874.017 111.443 851.599C180.298 829.177 246.82 781.719 336.556 702.66C426.401 623.503 513.744 570.594 608.929 557.098C704.124 543.599 807.132 569.525 928.285 648.05C1049.19 726.416 1142.14 746.012 1244.65 708.456C1347.24 670.867 1459.47 576.054 1618.85 425.65C1648.77 397.414 1677.44 373.891 1704.83 354.445L1705.2 355.372L1705.2 355.371Z" fill="white"/>
</mask>
<g mask="url(#mask9_76_1710)">
<path d="M1764.94 503.75L1608.72 115.732L-189.893 839.859L-33.6763 1227.88L1764.94 503.75Z" fill="url(#paint8_linear_76_1710)"/>
</g>
<mask id="mask10_76_1710" style="mask-type:luminance" maskUnits="userSpaceOnUse" x="-190" y="356" width="1897" height="520">
<path d="M1706.17 357.766C1678.57 378.481 1649.88 403.445 1620.16 433.401C1464.33 590.433 1351.57 685.227 1248.11 721.134C1144.57 757.067 1050.39 734.047 931.816 655.424C813.466 576.955 713.632 545.387 619.686 553.206C525.739 561.026 437.639 608.241 342.773 687.333L337.078 692.081C151.258 847.023 76.2693 909.551 -121.875 857.426C-146.9 850.842 -169.031 845.952 -188.9 842.324L-189.325 841.271C-169.285 844.911 -146.951 849.838 -121.661 856.492C76.0232 908.496 150.91 846.055 336.474 691.325L342.169 686.577C437.178 607.367 525.432 560.08 619.586 552.242C713.745 544.405 813.771 576.021 932.312 654.618C1050.63 733.064 1144.56 756.043 1247.78 720.218C1351.09 684.365 1463.76 589.639 1619.49 432.702C1649.31 402.643 1678.1 377.605 1705.79 356.835L1706.16 357.765L1706.17 357.766Z" fill="white"/>
</mask>
<g mask="url(#mask10_76_1710)">
<path d="M1770.16 516.703L1609.29 117.146L-189.324 841.273L-28.4614 1240.83L1770.16 516.703Z" fill="url(#paint9_linear_76_1710)"/>
</g>
<mask id="mask11_76_1710" style="mask-type:luminance" maskUnits="userSpaceOnUse" x="-190" y="359" width="1898" height="525">
<path d="M1707.09 360.057C1679.2 382.114 1650.41 408.626 1620.82 440.432C1468.65 604.013 1355.41 698.73 1251.23 732.902C1146.97 767.098 1051.81 740.685 935.84 661.986C820.079 583.432 723.209 546.179 630.294 548.354C537.386 550.526 448.386 592.124 348.37 671.264C315.8 697.035 286.88 721.182 260.423 743.273C124.145 857.053 53.0455 916.413 -115.845 863.522C-143.226 854.947 -167.208 848.292 -188.597 843.078L-189.035 841.988C-167.469 847.23 -143.266 853.936 -115.592 862.604C52.8189 915.343 123.788 856.091 259.818 742.52C286.281 720.426 315.206 696.276 347.786 670.495C447.958 591.23 537.124 549.57 630.251 547.391C723.372 545.212 820.418 582.519 936.348 661.187C1052.06 739.712 1146.98 766.078 1250.93 731.984C1354.95 697.866 1468.07 603.225 1620.14 439.758C1649.84 407.837 1678.73 381.24 1706.71 359.12L1707.09 360.058L1707.09 360.057Z" fill="white"/>
</mask>
<g mask="url(#mask11_76_1710)">
<path d="M1775.37 529.658L1609.56 117.805L-189.059 841.931L-23.2461 1253.78L1775.37 529.658Z" fill="url(#paint10_linear_76_1710)"/>
</g>
<mask id="mask12_76_1710" style="mask-type:luminance" maskUnits="userSpaceOnUse" x="-190" y="361" width="1898" height="530">
<path d="M1707.97 362.236C1679.79 385.662 1650.9 413.765 1621.49 447.463C1472.95 617.596 1359.26 712.236 1254.35 744.673C1149.37 777.133 1053.23 747.324 939.862 668.549C826.693 589.911 732.784 546.975 640.899 543.502C549.026 540.028 459.13 576.006 353.966 655.195C301.138 694.975 258.428 732.918 220.88 766.278C108.667 865.971 42.4359 924.811 -109.82 869.62C-139.715 858.782 -165.635 850.107 -188.597 843.078L-189.055 841.941C-165.901 849.013 -139.746 857.758 -109.525 868.713C42.2178 923.721 108.297 865.013 220.256 765.547C257.826 732.168 300.556 694.205 353.399 654.415C458.739 575.095 548.816 539.055 640.911 542.538C732.992 546.02 827.053 589.013 940.377 667.756C1053.5 746.36 1149.39 776.111 1254.06 743.75C1358.8 711.367 1472.37 616.81 1620.78 446.813C1650.31 412.989 1679.3 384.793 1707.59 361.297L1707.97 362.24L1707.97 362.236Z" fill="white"/>
</mask>
<g mask="url(#mask12_76_1710)">
<path d="M1780.59 542.611L1607.47 112.613L-191.149 836.739L-18.0312 1266.74L1780.59 542.611Z" fill="url(#paint11_linear_76_1710)"/>
</g>
<mask id="mask13_76_1710" style="mask-type:luminance" maskUnits="userSpaceOnUse" x="-190" y="363" width="1899" height="536">
<path d="M1708.8 364.314C1680.33 389.139 1651.37 418.87 1622.15 454.496C1477.27 631.174 1363.11 725.739 1257.47 756.441C1151.77 787.163 1054.65 753.963 943.884 675.11C833.302 596.388 742.359 547.768 651.506 538.647C560.672 529.527 469.877 559.891 359.566 639.128C291.692 687.883 241.12 736.962 197.694 779.11C99.7396 874.179 38.063 934.036 -103.787 875.718C-136.376 862.319 -164.322 851.349 -188.923 842.262L-189.404 841.069C-164.6 850.219 -136.4 861.279 -103.456 874.822C37.8381 932.912 99.3501 873.212 197.041 778.4C240.491 736.23 291.089 687.125 359.016 638.332C469.52 558.959 560.507 528.546 651.575 537.687C742.62 546.829 833.699 595.508 944.41 674.325C1054.94 753.008 1151.82 786.145 1257.2 755.516C1362.65 724.868 1476.67 630.396 1621.43 453.866C1650.76 418.099 1679.83 388.264 1708.42 363.366L1708.81 364.317L1708.8 364.314Z" fill="white"/>
</mask>
<g mask="url(#mask13_76_1710)">
<path d="M1785.8 555.564L1603.38 102.461L-195.237 826.587L-12.8167 1279.69L1785.8 555.564Z" fill="url(#paint12_linear_76_1710)"/>
</g>
<mask id="mask14_76_1710" style="mask-type:luminance" maskUnits="userSpaceOnUse" x="-191" y="365" width="1901" height="542">
<path d="M1709.6 366.286C1680.82 392.53 1651.79 423.935 1622.81 461.527C1481.58 644.758 1366.95 739.244 1260.59 768.212C1154.17 797.196 1056.07 760.602 947.905 681.673C839.913 602.865 751.93 548.558 662.108 533.787C572.312 519.023 480.62 543.772 365.16 623.057C285.039 678.076 229.642 737.415 182.875 787.508C94.6361 882.022 37.0569 943.696 -97.7611 881.812C-133.235 865.528 -163.312 851.955 -189.616 840.549L-190.121 839.294C-163.603 850.781 -133.26 864.47 -97.3948 880.933C36.8199 942.542 94.2212 881.056 182.189 786.831C228.988 736.702 284.423 677.325 364.628 622.249C480.297 542.819 572.197 518.033 662.234 532.837C752.242 547.637 840.335 602.005 948.436 680.892C1056.37 759.654 1154.23 796.178 1260.33 767.28C1366.5 738.365 1480.97 643.976 1622.07 460.918C1651.17 423.171 1680.32 391.654 1709.21 365.327L1709.6 366.286Z" fill="white"/>
</mask>
<g mask="url(#mask14_76_1710)">
<path d="M1791.01 568.515L1599.29 92.3086L-199.325 816.435L-7.60296 1292.64L1791.01 568.515Z" fill="url(#paint13_linear_76_1710)"/>
</g>
<mask id="mask15_76_1710" style="mask-type:luminance" maskUnits="userSpaceOnUse" x="-192" y="367" width="1903" height="548">
<path d="M1710.35 368.16C1681.27 395.851 1652.18 428.963 1623.47 468.559C1485.89 658.337 1370.8 752.75 1263.72 779.981C1156.57 807.228 1057.49 767.243 951.927 688.234C846.524 609.345 761.503 549.348 672.712 528.931C583.954 508.522 491.361 527.654 370.758 606.986C280.024 666.671 221.54 736.017 172.864 793.732C91.9184 889.711 38.036 953.601 -91.7293 887.908C-102.639 882.385 -114.674 876.277 -126.092 870.48C-150.076 858.305 -171.379 847.498 -190.698 837.861L-191.232 836.536C-171.666 846.287 -150.059 857.251 -125.692 869.62C-115.343 874.871 -104.507 880.371 -91.3304 887.041C37.7888 952.405 91.4849 888.737 172.151 793.088C220.869 735.323 279.398 665.919 370.242 606.165C491.079 526.681 583.889 507.519 672.896 527.986C761.869 548.446 846.975 608.497 952.468 687.456C1057.8 766.298 1156.65 806.205 1263.47 779.043C1370.35 751.862 1485.26 657.558 1622.72 467.968C1651.54 428.21 1680.76 394.973 1709.96 367.193L1710.35 368.159L1710.35 368.16Z" fill="white"/>
</mask>
<g mask="url(#mask15_76_1710)">
<path d="M1796.23 581.471L1595.21 82.1602L-203.411 806.286L-2.38724 1305.6L1796.23 581.471Z" fill="url(#paint14_linear_76_1710)"/>
</g>
<mask id="mask16_76_1710" style="mask-type:luminance" maskUnits="userSpaceOnUse" x="-193" y="368" width="1905" height="555">
<path d="M1711.07 369.935C1681.68 399.095 1652.54 433.955 1624.14 475.592C1490.2 671.918 1374.65 766.255 1266.84 791.751C1158.97 817.261 1058.91 773.883 955.948 694.795L938.448 681.334C743.269 531.114 620.627 436.72 376.359 590.913C276.031 654.246 215.558 733.609 165.873 798.814C90.7917 897.349 40.2791 963.638 -85.6954 894.002C-117.005 876.695 -144.21 861.282 -168.434 847.557C-176.694 842.88 -184.599 838.4 -192.209 834.107L-192.778 832.693C-184.863 837.159 -176.618 841.829 -167.996 846.714C-143.738 860.458 -116.492 875.893 -85.2659 893.153C40.0091 962.401 90.3301 896.364 165.128 798.203C214.858 732.939 275.387 653.507 375.853 590.085C620.658 435.552 743.501 530.098 939.001 680.565L956.501 694.026C1059.24 772.947 1159.07 816.241 1266.6 790.809C1374.2 765.363 1489.57 671.141 1623.36 475.022C1651.89 433.207 1681.15 398.209 1710.67 368.958L1711.07 369.935Z" fill="white"/>
</mask>
<g mask="url(#mask16_76_1710)">
<path d="M1801.44 594.425L1581.71 48.6328L-216.909 772.759L2.82816 1318.55L1801.44 594.425Z" fill="url(#paint15_linear_76_1710)"/>
</g>
<mask id="mask17_76_1710" style="mask-type:luminance" maskUnits="userSpaceOnUse" x="-195" y="370" width="1907" height="561">
<path d="M1711.74 371.613C1682.04 402.264 1652.87 438.91 1624.8 482.622C1494.51 685.499 1378.5 779.756 1269.96 803.518C1161.37 827.291 1060.32 780.518 959.969 701.354C943.063 688.018 926.726 674.872 910.852 662.102C738.996 523.837 621.625 429.409 381.956 574.839C272.694 641.14 210.983 730.636 160.896 803.274C90.7593 904.99 43.3531 973.737 -79.6667 900.097C-120.914 875.405 -155.291 853.717 -185.131 834.891L-194.196 829.171L-194.8 827.672L-184.655 834.072C-154.852 852.876 -120.516 874.536 -79.2075 899.264C43.0697 972.462 90.2801 903.996 160.128 802.703C210.264 729.991 272.036 640.406 381.465 574.006C621.682 428.24 739.263 522.837 911.422 661.348C927.272 674.097 943.584 687.223 960.533 700.592C1060.68 779.593 1161.49 826.272 1269.74 802.572C1378.05 778.861 1493.87 684.721 1624.01 482.074C1652.21 438.172 1681.51 401.38 1711.34 370.627L1711.74 371.613Z" fill="white"/>
</mask>
<g mask="url(#mask17_76_1710)">
<path d="M1806.66 607.377L1579.32 42.6973L-219.298 766.823L8.04273 1331.5L1806.66 607.377Z" fill="url(#paint16_linear_76_1710)"/>
</g>
<mask id="mask18_76_1710" style="mask-type:luminance" maskUnits="userSpaceOnUse" x="-198" y="372" width="1911" height="568">
<path d="M1712.38 373.204C1682.36 405.372 1653.17 443.834 1625.46 489.656C1498.82 699.082 1382.34 793.261 1273.08 815.29C1163.78 837.325 1061.74 787.161 963.994 707.918C939.173 687.796 915.837 667.894 893.377 648.738C738.517 516.663 625.144 419.972 387.556 558.773C269.809 627.563 207.408 727.364 157.355 807.415C91.5419 912.675 47.0213 983.876 -73.6307 906.197C-120.929 875.745 -159.327 848.995 -192.305 826.021L-196.699 822.961L-197.342 821.363L-191.79 825.229C-158.844 848.182 -120.479 874.906 -73.1451 905.384C46.7174 982.556 91.0382 911.672 156.56 806.882C206.663 726.748 269.134 626.839 387.077 557.935C625.225 418.806 738.814 515.681 893.965 648.006C916.488 667.216 939.888 687.171 964.56 707.172C1062.11 786.25 1163.9 836.316 1272.88 814.348C1381.89 792.37 1498.16 698.315 1624.65 489.136C1652.49 443.102 1681.82 404.495 1711.98 372.217L1712.38 373.202L1712.38 373.204Z" fill="white"/>
</mask>
<g mask="url(#mask18_76_1710)">
<path d="M1811.87 620.328L1576.54 35.7969L-222.076 759.923L13.2575 1344.45L1811.87 620.328Z" fill="url(#paint17_linear_76_1710)"/>
</g>
<mask id="mask19_76_1710" style="mask-type:luminance" maskUnits="userSpaceOnUse" x="-201" y="373" width="1915" height="575">
<path d="M1713.01 374.763C1682.66 408.472 1653.44 448.713 1626.12 496.685C1503.13 712.662 1386.19 806.764 1276.2 827.053C1166.18 847.352 1063.16 793.796 968.014 714.475C937.714 689.215 909.675 663.633 882.772 639.087C740.806 509.566 630.553 408.979 393.157 542.694C267.229 613.623 204.554 723.938 154.868 811.39C142.655 832.885 131.228 852.997 119.814 870.844C73.421 943.388 27.6508 977.85 -67.5936 912.281C-118.949 876.927 -159.95 845.675 -195.004 818.954L-199.77 815.32L-200.459 813.609L-194.456 818.185C-159.4 844.908 -118.395 876.163 -67.0845 911.486C27.4878 976.591 72.9477 942.357 119.029 870.3C130.401 852.517 141.835 832.39 154.056 810.885C203.798 723.335 266.54 612.901 392.692 541.845C630.67 407.8 741.144 508.592 883.391 638.369C910.307 662.928 938.364 688.526 968.597 713.729C1063.55 792.885 1166.32 846.336 1276.01 826.101C1385.75 805.856 1502.47 711.884 1625.3 496.179C1652.75 447.991 1682.11 407.594 1712.61 373.768L1713.01 374.763Z" fill="white"/>
</mask>
<g mask="url(#mask19_76_1710)">
<path d="M1817.09 633.284L1573.49 28.2227L-225.124 752.349L18.4744 1357.41L1817.09 633.284Z" fill="url(#paint18_linear_76_1710)"/>
</g>
<mask id="mask20_76_1710" style="mask-type:luminance" maskUnits="userSpaceOnUse" x="-205" y="375" width="1919" height="581">
<path d="M1713.6 376.237C1682.92 411.505 1653.68 453.563 1626.78 503.717C1507.44 726.244 1390.03 820.27 1279.32 838.826C1168.58 857.384 1064.58 800.437 972.033 721.037C937.923 691.772 906.846 661.271 877.002 631.978C745.177 502.589 637.435 396.837 398.756 526.626C264.865 599.435 202.256 720.473 153.192 815.327C136.375 847.838 121.147 877.279 105.181 900.661C65.691 958.507 21.7393 979.389 -61.5612 918.381C-115.767 878.683 -158.653 843.216 -195.267 812.936L-203.463 806.161L-204.202 804.325L-194.686 812.191C-158.079 842.464 -115.206 877.923 -61.0262 917.603C21.6473 978.151 65.2465 957.454 104.406 900.093C120.343 876.746 135.557 847.335 152.356 814.86C201.48 719.894 264.161 598.712 398.299 525.769C637.575 395.656 745.543 501.629 877.645 631.29C907.477 660.569 938.54 691.06 972.625 720.303C1064.98 799.539 1168.73 856.377 1279.15 837.872C1389.6 819.361 1506.77 725.471 1625.95 503.234C1652.97 452.849 1682.36 410.625 1713.2 375.234L1713.6 376.237Z" fill="white"/>
</mask>
<g mask="url(#mask20_76_1710)">
<path d="M1822.31 646.241L1570.25 20.1621L-228.372 744.288L23.6887 1370.37L1822.31 646.241Z" fill="url(#paint19_linear_76_1710)"/>
</g>
<mask id="mask21_76_1710" style="mask-type:luminance" maskUnits="userSpaceOnUse" x="-209" y="376" width="1924" height="588">
<path d="M1714.16 377.628C1683.13 414.478 1653.89 458.381 1627.44 510.747C1511.75 739.826 1393.88 833.774 1282.45 850.591C1170.98 867.413 1066 807.071 976.056 727.596C939.376 695.183 906.465 660.316 874.737 626.701C751.139 495.751 645.478 383.806 404.356 510.551C262.656 585.035 200.391 717.021 152.152 819.28C133.118 859.63 116.265 895.357 97.5692 921.13C62.122 969.997 20.1329 983.164 -55.5236 924.478C-111.866 880.775 -156.198 841.29 -194.053 807.575C-198.744 803.398 -203.328 799.317 -207.827 795.319L-208.616 793.359C-203.671 797.748 -198.62 802.245 -193.448 806.851C-155.607 840.553 -111.291 880.021 -54.9674 923.713C20.0923 981.938 61.7106 968.93 96.8095 920.542C115.462 894.828 132.293 859.145 151.306 818.845C199.603 716.465 261.941 584.316 403.915 509.692C645.653 382.625 751.543 494.81 875.408 626.043C907.117 659.639 940.01 694.484 976.662 726.873C1066.42 806.187 1171.16 866.41 1282.29 849.639C1393.45 832.86 1511.07 739.055 1626.61 510.288C1653.17 457.675 1682.57 413.593 1713.76 376.616L1714.16 377.63L1714.16 377.628Z" fill="white"/>
</mask>
<g mask="url(#mask21_76_1710)">
<path d="M1827.52 659.191L1566.86 11.7441L-231.759 735.87L28.904 1383.32L1827.52 659.191Z" fill="url(#paint20_linear_76_1710)"/>
</g>
<mask id="mask22_76_1710" style="mask-type:luminance" maskUnits="userSpaceOnUse" x="-214" y="377" width="1929" height="595">
<path d="M1714.69 378.94C1683.31 417.389 1654.06 463.175 1628.1 517.783C1516.06 753.411 1397.73 847.28 1285.57 862.36C1173.38 877.445 1067.42 813.712 980.077 734.156C941.772 699.267 907.91 660.467 875.063 622.833C758.341 489.105 654.471 370.099 409.958 494.478C260.559 570.475 198.88 713.639 151.633 823.3C131.488 870.061 113.964 910.739 93.3617 937.582C60.7655 980.051 20.5795 987.915 -49.4839 930.571C-107.5 883.086 -152.993 839.736 -191.882 802.676C-199.108 795.789 -206.098 789.129 -212.907 782.691L-213.748 780.602C-206.478 787.47 -198.999 794.593 -191.252 801.977C-152.373 839.026 -106.891 882.367 -48.9098 929.822C20.5815 986.697 60.3853 978.968 92.6184 936.97C113.146 910.225 130.652 869.594 150.773 822.889C198.076 713.094 259.829 569.756 409.524 493.608C654.674 368.905 758.777 488.174 875.756 622.2C908.585 659.812 942.432 698.59 980.692 733.439C1067.85 812.833 1173.57 876.442 1285.42 861.4C1397.3 846.357 1515.37 752.63 1627.25 517.335C1653.34 462.474 1682.74 416.501 1714.28 377.919L1714.69 378.94Z" fill="white"/>
</mask>
<g mask="url(#mask22_76_1710)">
<path d="M1832.74 672.146L1563.36 3.06641L-235.253 727.193L34.1191 1396.27L1832.74 672.146Z" fill="url(#paint21_linear_76_1710)"/>
</g>
</g>
</mask>
<g mask="url(#mask0_76_1710)">
<path d="M-191.852 516.924L1508.61 270.378L1594.27 861.187L-106.192 1107.73L-191.852 516.924Z" fill="url(#paint22_radial_76_1710)"/>
</g>
<defs>
<linearGradient id="paint0_linear_76_1710" x1="-100.086" y1="879.961" x2="1702.82" y2="356.401" gradientUnits="userSpaceOnUse">
<stop stop-color="#0131B8"/>
<stop offset="1" stop-color="#F5F5F5"/>
</linearGradient>
<linearGradient id="paint1_linear_76_1710" x1="-97.3912" y1="889.247" x2="1705.51" y2="365.685" gradientUnits="userSpaceOnUse">
<stop stop-color="#0131B8"/>
<stop offset="1" stop-color="#F5F5F5"/>
</linearGradient>
<linearGradient id="paint2_linear_76_1710" x1="-94.6196" y1="898.783" x2="1708.29" y2="375.223" gradientUnits="userSpaceOnUse">
<stop stop-color="#0131B8"/>
<stop offset="1" stop-color="#F5F5F5"/>
</linearGradient>
<linearGradient id="paint3_linear_76_1710" x1="-91.7506" y1="908.661" x2="1711.15" y2="385.102" gradientUnits="userSpaceOnUse">
<stop stop-color="#0131B8"/>
<stop offset="1" stop-color="#F5F5F5"/>
</linearGradient>
<linearGradient id="paint4_linear_76_1710" x1="-88.7535" y1="918.985" x2="1714.15" y2="395.425" gradientUnits="userSpaceOnUse">
<stop stop-color="#0131B8"/>
<stop offset="1" stop-color="#F5F5F5"/>
</linearGradient>
<linearGradient id="paint5_linear_76_1710" x1="-85.5824" y1="929.907" x2="1717.32" y2="406.347" gradientUnits="userSpaceOnUse">
<stop stop-color="#0131B8"/>
<stop offset="1" stop-color="#F5F5F5"/>
</linearGradient>
<linearGradient id="paint6_linear_76_1710" x1="-82.1747" y1="941.638" x2="1720.73" y2="418.079" gradientUnits="userSpaceOnUse">
<stop stop-color="#0131B8"/>
<stop offset="1" stop-color="#F5F5F5"/>
</linearGradient>
<linearGradient id="paint7_linear_76_1710" x1="-89.0476" y1="917.975" x2="1713.86" y2="394.416" gradientUnits="userSpaceOnUse">
<stop stop-color="#0131B8"/>
<stop offset="1" stop-color="#F5F5F5"/>
</linearGradient>
<linearGradient id="paint8_linear_76_1710" x1="-86.8002" y1="925.706" x2="1716.11" y2="402.146" gradientUnits="userSpaceOnUse">
<stop stop-color="#0131B8"/>
<stop offset="1" stop-color="#F5F5F5"/>
</linearGradient>
<linearGradient id="paint9_linear_76_1710" x1="-84.6528" y1="933.105" x2="1718.25" y2="409.546" gradientUnits="userSpaceOnUse">
<stop stop-color="#0131B8"/>
<stop offset="1" stop-color="#F5F5F5"/>
</linearGradient>
<linearGradient id="paint10_linear_76_1710" x1="-82.6174" y1="940.118" x2="1720.29" y2="416.558" gradientUnits="userSpaceOnUse">
<stop stop-color="#0131B8"/>
<stop offset="1" stop-color="#F5F5F5"/>
</linearGradient>
<linearGradient id="paint11_linear_76_1710" x1="-81.4548" y1="944.113" x2="1721.45" y2="420.553" gradientUnits="userSpaceOnUse">
<stop stop-color="#0131B8"/>
<stop offset="1" stop-color="#F5F5F5"/>
</linearGradient>
<linearGradient id="paint12_linear_76_1710" x1="-81.0362" y1="945.558" x2="1721.87" y2="421.998" gradientUnits="userSpaceOnUse">
<stop stop-color="#0131B8"/>
<stop offset="1" stop-color="#F5F5F5"/>
</linearGradient>
<linearGradient id="paint13_linear_76_1710" x1="-80.6193" y1="946.999" x2="1722.29" y2="423.439" gradientUnits="userSpaceOnUse">
<stop stop-color="#0131B8"/>
<stop offset="1" stop-color="#F5F5F5"/>
</linearGradient>
<linearGradient id="paint14_linear_76_1710" x1="-80.1977" y1="948.445" x2="1722.71" y2="424.884" gradientUnits="userSpaceOnUse">
<stop stop-color="#0131B8"/>
<stop offset="1" stop-color="#F5F5F5"/>
</linearGradient>
<linearGradient id="paint15_linear_76_1710" x1="-83.2761" y1="937.85" x2="1719.63" y2="414.29" gradientUnits="userSpaceOnUse">
<stop stop-color="#0131B8"/>
<stop offset="1" stop-color="#F5F5F5"/>
</linearGradient>
<linearGradient id="paint16_linear_76_1710" x1="-82.2279" y1="941.463" x2="1720.68" y2="417.902" gradientUnits="userSpaceOnUse">
<stop stop-color="#0131B8"/>
<stop offset="1" stop-color="#F5F5F5"/>
</linearGradient>
<linearGradient id="paint17_linear_76_1710" x1="-81.3211" y1="944.579" x2="1721.58" y2="421.019" gradientUnits="userSpaceOnUse">
<stop stop-color="#0131B8"/>
<stop offset="1" stop-color="#F5F5F5"/>
</linearGradient>
<linearGradient id="paint18_linear_76_1710" x1="-80.5163" y1="947.35" x2="1722.39" y2="423.791" gradientUnits="userSpaceOnUse">
<stop stop-color="#0131B8"/>
<stop offset="1" stop-color="#F5F5F5"/>
</linearGradient>
<linearGradient id="paint19_linear_76_1710" x1="-79.7864" y1="949.871" x2="1723.12" y2="426.311" gradientUnits="userSpaceOnUse">
<stop stop-color="#0131B8"/>
<stop offset="1" stop-color="#F5F5F5"/>
</linearGradient>
<linearGradient id="paint20_linear_76_1710" x1="-79.1051" y1="952.206" x2="1723.8" y2="428.646" gradientUnits="userSpaceOnUse">
<stop stop-color="#0131B8"/>
<stop offset="1" stop-color="#F5F5F5"/>
</linearGradient>
<linearGradient id="paint21_linear_76_1710" x1="-78.4649" y1="954.409" x2="1724.44" y2="430.849" gradientUnits="userSpaceOnUse">
<stop stop-color="#0131B8"/>
<stop offset="1" stop-color="#F5F5F5"/>
</linearGradient>
<radialGradient id="paint22_radial_76_1710" cx="0" cy="0" r="1" gradientUnits="userSpaceOnUse" gradientTransform="translate(714.608 671.114) rotate(159.31) scale(1154.22 3322.07)">
<stop offset="0.31" stop-color="#E7E7EA"/>
<stop offset="1" stop-color="#171347"/>
</radialGradient>
<clipPath id="clip0_76_1710">
<rect width="679.631" height="1938.91" fill="white" transform="translate(1571.41 23.0625) rotate(68.0702)"/>
</clipPath>
</defs>
</svg>
